<?xml version="1.0" encoding="UTF-8"?>
<!DOCTYPE svg PUBLIC "-//W3C//DTD SVG 1.1//EN" "http://www.w3.org/Graphics/SVG/1.1/DTD/svg11.dtd">
<!-- Creator: CorelDRAW 2018 (64-Bit) -->
<svg xmlns="http://www.w3.org/2000/svg" xml:space="preserve" width="10.24in" height="10.24in" version="1.1" style="shape-rendering:geometricPrecision; text-rendering:geometricPrecision; image-rendering:optimizeQuality; fill-rule:evenodd; clip-rule:evenodd"
viewBox="0 0 10240 10240"
 xmlns:xlink="http://www.w3.org/1999/xlink">
 <defs>
  <style type="text/css">
   <![CDATA[
    .str0 {stroke:black;stroke-width:6.94;stroke-miterlimit:2.61313}
    .str1 {stroke:black;stroke-width:6.94;stroke-miterlimit:2.61313}
    .fil5 {fill:none}
    .fil4 {fill:black}
    .fil3 {fill:black}
    .fil0 {fill:#009933}
    .fil1 {fill:#00CCFF}
    .fil2 {fill:#EDE6F5}
   ]]>
  </style>
 </defs>
 <g id="Layer_x0020_1">
  <metadata id="CorelCorpID_0Corel-Layer"/>
  <ellipse class="fil0 str0" cx="5108.83" cy="5120.81" rx="3544.2" ry="3554.75"/>
  <path class="fil1" d="M7420 5119.93c0,-1270.26 -1029.81,-2300.07 -2300.07,-2300.07 -1270.26,0 -2299.93,1029.81 -2299.93,2300.07 0,1270.4 1029.67,2300.21 2299.93,2300.21 1270.26,0 2300.07,-1029.81 2300.07,-2300.21zm0 0z"/>
  <path class="fil2" d="M5119.93 4073.6l-1015.84 1759.76 2031.81 -0.01 -1015.97 -1759.74zm0 0z"/>
  <path class="fil3" d="M6135.9 6194.78l-2031.81 0c-129.19,0 -248.48,-68.9 -313.01,-180.72 -64.53,-111.82 -64.53,-249.62 0,-361.44l1015.84 -1759.76c64.66,-111.82 183.97,-180.72 313.01,-180.72 129.19,0 248.48,68.9 313.01,180.72l1015.98 1759.76c64.53,111.82 64.53,249.62 0,361.44 -64.52,111.82 -183.97,180.72 -313.01,180.72l-0.01 0zm-1405.8 -722.87l779.78 0 -389.95 -675.44 -389.82 675.44zm0 0z"/>
  <path class="fil4" d="M5119.97 8675.56c-949.65,0 -1842.5,-369.85 -2514,-1041.39 -671.5,-671.55 -1041.34,-1564.45 -1041.34,-2514.16 0,-949.71 369.85,-1842.61 1041.34,-2514.16 671.5,-671.55 1564.34,-1041.39 2514,-1041.39 949.71,0 1842.5,369.85 2514.05,1041.39 671.5,671.55 1041.34,1564.45 1041.34,2514.16 0,949.71 -369.85,1842.61 -1041.34,2514.16 -671.55,671.55 -1564.34,1041.39 -2514.05,1041.39zm0 -6833.33c-1807.24,0 -3277.56,1470.38 -3277.56,3277.78 0,1807.4 1470.32,3277.78 3277.56,3277.78 1807.29,0 3277.61,-1470.38 3277.61,-3277.78 0,-1807.4 -1470.32,-3277.78 -3277.61,-3277.78zm0 0z"/>
  <path class="fil4" d="M5119.98 7500.11c-1312.28,0 -2379.98,-1067.7 -2379.98,-2380.11 0,-1312.41 1067.7,-2380.11 2379.98,-2380.11 564.52,0 1112.22,201.97 1542.28,568.65 46.33,39.52 51.84,109.1 12.36,155.38 -39.48,46.33 -109.06,51.88 -155.38,12.36 -390.2,-332.72 -887.13,-515.96 -1399.25,-515.96 -1190.74,0 -2159.54,968.84 -2159.54,2159.67 0,1190.83 968.8,2159.67 2159.54,2159.67 1190.79,0 2159.59,-968.84 2159.59,-2159.67 0,-290.09 -56.83,-571.75 -168.86,-837.14 -23.68,-56.1 2.58,-120.76 58.68,-144.44 56.1,-23.63 120.72,2.63 144.4,58.69 123.52,292.68 186.21,603.19 186.21,922.9 0,1312.41 -1067.7,2380.11 -2380.02,2380.11l-0 0zm0 0z"/>
  <path class="fil4" d="M6963.16 3906.48c-7.15,0 -14.43,-0.65 -21.48,-2.06 -7.06,-1.46 -13.99,-3.53 -20.62,-6.29 -6.72,-2.76 -13.09,-6.2 -19.07,-10.16 -6.03,-4.04 -11.67,-8.56 -16.75,-13.78 -20.5,-20.49 -32.29,-48.82 -32.29,-77.93 0,-7.15 0.78,-14.3 2.2,-21.48 1.46,-7.06 3.53,-13.99 6.29,-20.62 2.75,-6.59 6.2,-13.09 10.16,-19.03 3.96,-6.07 8.61,-11.71 13.65,-16.79 5.08,-5.04 10.72,-9.69 16.75,-13.65 5.98,-3.96 12.35,-7.36 19.07,-10.11 6.63,-2.76 13.56,-4.87 20.62,-6.29 14.21,-2.89 28.89,-2.89 43.09,0 6.93,1.42 13.91,3.53 20.63,6.29 6.59,2.75 13,6.16 18.94,10.11 6.07,3.96 11.67,8.61 16.75,13.65 5.08,5.08 9.69,10.72 13.78,16.79 3.96,5.94 7.41,12.44 10.16,19.03 2.76,6.63 4.82,13.56 6.29,20.62 1.42,7.19 2.06,14.34 2.06,21.48 0,29.11 -11.8,57.43 -32.29,77.93 -5.08,5.21 -10.68,9.73 -16.75,13.78 -5.94,3.96 -12.35,7.41 -18.94,10.16 -6.72,2.76 -13.69,4.82 -20.63,6.29 -7.15,1.42 -14.42,2.06 -21.61,2.06zm0 0z"/>
  <path class="fil5 str1" d="M7420 5119.93c0,-1270.26 -1029.81,-2300.07 -2300.07,-2300.07 -1270.26,0 -2299.93,1029.81 -2299.93,2300.07 0,1270.4 1029.67,2300.21 2299.93,2300.21 1270.26,0 2300.07,-1029.81 2300.07,-2300.21zm0 0z"/>
 </g>
</svg>
